Simulation
nRows=38
nColumns=15
endheader
time  TH_x TH_y TH_z SC_y  SC_z  SC_x  AC_y  AC_z  AC_x  GH_y  GH_z  GH_yy  EL_x  PS_y
0.0  0.000000  0.000000  0.000000  -14.376979584240088  -5.765636238179715  1.4528752838539938  53.099377249756  2.359491722326757  -19.4151550544227  23.07801971039126  16.373762967219598  -4.770815865209779  26.09976876384951  120.000000
0.02799999999999999  0.000000  0.000000  0.000000  -14.65713742896145  -5.0120770013005425  1.5943311088802536  52.79974157173096  2.304873345285514  -19.14045805787408  22.4426496738264  16.379926689864558  -4.649224835124523  25.30843442837846  120.000000
0.05599999999999998  0.000000  0.000000  0.000000  -14.819895292119895  -4.517209918335744  1.7678397976530194  52.58861492467291  2.139179422903106  -18.74028375880762  21.959601250122592  16.42683787563162  -4.497030075017673  24.696585680100416  120.000000
0.08399999999999996  0.000000  0.000000  0.000000  -14.870160238221924  -4.280147548867002  1.9207523845553514  52.49632235167838  1.8893733823705863  -18.36308782028809  21.674339881829244  16.539379797777997  -4.3358767674376795  24.30306841305029  120.000000
0.11199999999999996  0.000000  0.000000  0.000000  -14.840298100132307  -4.244010944882063  2.043041352299746  52.5398926555611  1.6014453216257818  -18.127433456861674  21.602780126406227  16.76581513287308  -4.199705388326519  24.12168261226895  120.000000
0.13999999999999996  0.000000  0.000000  0.000000  -14.802005618664202  -4.345670995195538  2.173139264493696  52.63893506490449  1.3491791970877045  -18.074019684596713  21.695182495644165  17.11786599968065  -4.133638691398262  24.065446365325183  120.000000
0.16799999999999993  0.000000  0.000000  0.000000  -14.805919827846205  -4.504782563791422  2.3237432746358584  52.74483074476588  1.1784667658629433  -18.16834474566725  21.885419815217013  17.606431286562028  -4.17277942769134  24.04469372127399  120.000000
0.19599999999999992  0.000000  0.000000  0.000000  -14.853260141268667  -4.665230695134777  2.4853169357496423  52.85427542222495  1.0981047422883106  -18.33974819873559  22.120478810686148  18.238594906019255  -4.331377217686354  24.00605406876165  120.000000
0.22399999999999992  0.000000  0.000000  0.000000  -14.931552030671238  -4.803368877932685  2.6559081588788405  52.97924170414308  1.0836215202733988  -18.52056927718991  22.36078687485153  19.01009404532361  -4.606947231584548  23.93104226351377  120.000000
0.2519999999999999  0.000000  0.000000  0.000000  -15.027472510421326  -4.910133193534829  2.8355756268201877  53.13544741900293  1.101568102840801  -18.674627114410438  22.58226958861479  19.913359302875495  -4.986961430843714  23.82877753775118  120.000000
0.2799999999999999  0.000000  0.000000  0.000000  -15.131983355299715  -4.984751878570024  3.027100368672  53.325351298480605  1.133245412937323  -18.789339591497203  22.76704996457493  20.935713549262136  -5.452955726259636  23.715119099693815  120.000000
0.3079999999999999  0.000000  0.000000  0.000000  -15.241111688112046  -5.026913920152679  3.2341568366933156  53.547143299664334  1.1711818739685682  -18.867544918623636  22.899868639470352  22.068797022664654  -5.989225805229632  23.60293593753705  120.000000
0.33599999999999985  0.000000  0.000000  0.000000  -15.352645763564546  -5.033493438501877  3.4597558904480055  53.79638646141723  1.2177909233900626  -18.91868081172655  22.969495766141044  23.304283933218304  -6.578949743973911  23.500988064179424  120.000000
0.3639999999999999  0.000000  0.000000  0.000000  -15.464650816774888  -5.001200143726034  3.7049888566884865  54.06508995481092  1.2786017229838467  -18.95044515018014  22.966906029785207  24.633292908285185  -7.208014162281946  23.40897871655168  120.000000
0.39199999999999985  0.000000  0.000000  0.000000  -15.575719613499201  -4.927939617150076  3.9693415423772347  54.34833757275863  1.358148200561465  -18.96760126223031  22.88634030628387  26.046502287017667  -7.864755291692645  23.321435409955154  120.000000
0.4199999999999999  0.000000  0.000000  0.000000  -15.683349039360015  -4.813346169398691  4.251362307483031  54.641866411594286  1.4588447834863425  -18.970522994200188  22.725802480042837  27.533470111769457  -8.539201140331983  23.229778129355577  120.000000
0.44799999999999984  0.000000  0.000000  0.000000  -15.784438889221885  -4.660173730585206  4.548889642973531  54.94505255494826  1.5804121531449817  -18.957794902859774  22.485202948186757  29.083134044921913  -9.224386146503376  23.12516162076736  120.000000
0.4759999999999998  0.000000  0.000000  0.000000  -15.875441106974524  -4.472673849942644  4.860065674809461  55.25682742607216  1.7214019239503529  -18.927331503799145  22.16647684359335  30.681452428222133  -9.912337494392178  23.00175346877389  120.000000
0.5039999999999998  0.000000  0.000000  0.000000  -15.952446767975104  -4.25615839829318  5.181881605871105  55.5769170429919  1.880042272292528  -18.878543713079345  21.771889163149773  32.312360682499296  -10.595969137501344  22.85768874401261  120.000000
0.5319999999999998  0.000000  0.000000  0.000000  -16.012670791039135  -4.015836819367996  5.511776633602232  55.90331804817403  2.055503010539255  -18.811601022767256  21.304328111986287  33.95676097001086  -11.266652354857525  22.695293870321628  120.000000
0.5599999999999998  0.000000  0.000000  0.000000  -16.054889606966256  -3.756355996155042  5.847372896621815  56.23440167926788  2.2469595220859797  -18.7283434895299  20.76745896732812  35.5951995077606  -11.918614208232007  22.519889048307046  120.000000
0.5879999999999997  0.000000  0.000000  0.000000  -16.08133625056293  -3.48128085748589  6.187563565024714  56.56861782054759  2.4543690135808567  -18.63003343111499  20.16664988836742  37.208091312167824  -12.548828145054804  22.338599932590576  120.000000
0.6159999999999998  0.000000  0.000000  0.000000  -16.097662066751788  -3.192618555133949  6.531881031093446  56.90630309857077  2.6778998922481603  -18.517421738883783  19.50982145242384  38.778527543639434  -13.161778037849837  22.158987156819926  120.000000
0.6439999999999998  0.000000  0.000000  0.000000  -16.113663814123843  -2.8908284394618975  6.881358371633076  57.249776922789884  2.918148618371722  -18.38943267028468  18.807399656108597  40.29227803013292  -13.76835530002348  21.988086011786017  120.000000
0.6719999999999997  0.000000  0.000000  0.000000  -16.141760222427067  -2.57519762817606  7.237839381106741  57.60248396379243  3.175938941140833  -18.24377234847907  18.072104817766085  41.73851275014045  -14.38597452070079  21.831868531749972  120.000000
0.6999999999999997  0.000000  0.000000  0.000000  -16.19548290361067  -2.243989098936616  7.603656449967828  57.96903185694361  3.4522154977895747  -18.07712437694223  17.317188195800103  43.109296861985186  -15.03389958613903  21.694784665797247  120.000000
0.7279999999999998  0.000000  0.000000  0.000000  -16.286961152034653  -1.8952932871441428  7.981291997372092  58.3533798990675  3.747862130993643  -17.88557700980189  16.555501642063003  44.39988134322874  -15.72952703811038  21.579870378775514  120.000000
0.7559999999999998  0.000000  0.000000  0.000000  -16.425197612895964  -1.5277872144690932  8.3731684446925  58.7591127631766  4.063345496202196  -17.66503116550972  15.797020046404073  45.60848928334159  -16.483700156801742  21.488591920047273  120.000000
0.7839999999999997  0.000000  0.000000  0.000000  -16.615410330132057  -1.1407464068403919  8.781067491323732  59.18822725783906  4.39833555150841  -17.41172134211954  15.048396904086712  46.7362684055311  -17.298075364272616  21.420360944526937  120.000000
0.8119999999999997  0.000000  0.000000  0.000000  -16.85922310918021  -0.7344826719370678  9.205705013528643  59.64151478623731  4.751694589003253  -17.1229690779353  14.311669761628442  47.78696498738396  -18.164925558967155  21.3730007493659  120.000000
0.8399999999999997  0.000000  0.000000  0.000000  -17.15568976829506  -0.31031921997886086  9.647101074807688  60.11808130243417  5.121705363996821  -16.79688476019274  13.585422447263932  48.76625602124803  -19.068658558272446  21.343371197955907  120.000000
0.8679999999999997  0.000000  0.000000  0.000000  -17.5023381460918  0.12967629816258194  10.104762948066762  60.61651191239743  5.506004504331901  -16.432498905286373  12.86515811233332  49.681143771449186  -19.989082741849092  21.328079544573278  120.000000
0.8959999999999997  0.000000  0.000000  0.000000  -17.896469475222485  0.5831573691755689  10.57808716219736  61.13462559714581  5.902344300919397  -16.02946517038408  12.14526259592236  50.53864490886121  -20.904201172257846  21.324344034769528  120.000000
0.9239999999999997  0.000000  0.000000  0.000000  -18.33578840270319  1.0479339804599974  11.06593667495123  61.670139561112755  6.309198063922783  -15.587848786755716  11.419694780154249  51.34516714916043  -21.79321547140256  21.330628750582854  120.000000
0.9519999999999996  0.000000  0.000000  0.000000  -18.818783831901307  1.5223358179559827  11.567905357565953  62.22054022686348  6.72542836956351  -15.10812035842873  10.683463215972774  52.10564462230393  -22.638094799545048  21.346953761140703  120.000000
0.9799999999999996  0.000000  0.000000  0.000000  -19.344358007131746  2.005277999593151  12.08551417499175  62.7834223604753  7.148814509145957  -14.59166313856672  9.932580813105455  52.82358070846894  -23.424710547189665  21.374927438762  120.000000
1.0079999999999996  0.000000  0.000000  0.000000  -19.911529397587053  2.4961443513995967  12.622245319192881  63.356325368506155  7.57595016252897  -14.040335323831256  9.164507812291221  53.50074130784639  -24.143140562771535  21.417512546579943  120.000000
1.0359999999999996  0.000000  0.000000  0.000000  -20.518600912486768  2.994402010386297  13.182609439569498  63.93699737509665  8.002154942232707  -13.456162107015988  8.377680637808302  54.13756060758651  -24.788049168488957  21.47872605393187  120.000000
